<svg width="409" height="53" xmlns="http://www.w3.org/2000/svg"><defs><linearGradient x1="99.33%" y1="41.9%" x2=".66%" y2="58.08%" id="a"><stop stop-color="#FFF" offset="0%"/><stop stop-color="#FFFEFD" offset="29%"/><stop stop-color="#FFFBF5" offset="44%"/><stop stop-color="#FFF5E8" offset="55%"/><stop stop-color="#FEEDD5" offset="65%"/><stop stop-color="#FEE3BC" offset="74%"/><stop stop-color="#FDD79E" offset="82%"/><stop stop-color="#FCC879" offset="90%"/><stop stop-color="#FBB751" offset="97%"/><stop stop-color="#FBB040" offset="99%"/></linearGradient><linearGradient x1="99.33%" y1="41.9%" x2=".66%" y2="58.08%" id="b"><stop stop-color="#FFF" offset="0%"/><stop stop-color="#FCFCFC" offset="21%"/><stop stop-color="#F3F3F3" offset="35%"/><stop stop-color="#E5E4E4" offset="47%"/><stop stop-color="#CFCECF" offset="58%"/><stop stop-color="#B4B3B3" offset="68%"/><stop stop-color="#929091" offset="78%"/><stop stop-color="#6A6868" offset="87%"/><stop stop-color="#3D3A3B" offset="96%"/><stop stop-color="#231F20" offset="100%"/></linearGradient><linearGradient x1="30.87%" y1="96.18%" x2="69.13%" y2="3.8%" id="c"><stop stop-color="#FFF" offset="0%"/><stop stop-color="#8B5E3C" offset="100%"/></linearGradient><radialGradient fx="50%" fy="50%" r="50.06%" gradientTransform="scale(1 .99226) rotate(22.56 .49 .5)" id="d"><stop stop-color="#FFF" offset="0%"/><stop stop-color="#FDFDFC" offset="27%"/><stop stop-color="#F6F5F4" offset="44%"/><stop stop-color="#EBE8E6" offset="58%"/><stop stop-color="#DBD5D1" offset="70%"/><stop stop-color="#C6BDB7" offset="81%"/><stop stop-color="#ADA096" offset="92%"/><stop stop-color="#948377" offset="100%"/></radialGradient></defs><g fill="none" fill-rule="evenodd"><path d="M36.26 51.05c-13.01 5.4-27.92-.8-33.31-13.84A25.6 25.6 0 0 1 16.75 3.8c13-5.4 27.91.79 33.3 13.84a25.6 25.6 0 0 1-13.8 33.4z" fill="#9B794B" fill-rule="nonzero"/><path d="M52.02 30.2c-2.28 13.93-15.56 23.36-29.66 21.05C8.26 48.95-1.3 35.77.98 21.82 3.26 7.88 16.54-1.55 30.64.76 44.74 3.07 54.3 16.25 52.02 30.2z" fill="#F7E1A4" fill-rule="nonzero"/><ellipse fill="url(#a)" fill-rule="nonzero" opacity=".81" transform="rotate(-80.69 26.5 26)" cx="26.5" cy="26.01" rx="25.58" ry="25.86" style="mix-blend-mode:multiply"/><ellipse fill="url(#b)" fill-rule="nonzero" opacity=".35" transform="rotate(-80.69 26.5 26)" cx="26.5" cy="26.01" rx="25.58" ry="25.86" style="mix-blend-mode:multiply"/><path d="M51.74 30.2C49.46 44.28 36.3 53.83 22.36 51.52 8.42 49.22-1.03 35.92 1.26 21.83 3.54 7.72 16.7-1.84 30.64.47 44.58 2.8 54.04 16.1 51.74 30.2z" fill="#FFF" fill-rule="nonzero" opacity=".31"/><path d="M33.4 42.68a17.94 17.94 0 0 1-23.39-9.84 17.94 17.94 0 0 1 9.59-23.5c9.1-3.77 19.57.64 23.39 9.84a17.94 17.94 0 0 1-9.59 23.5z" fill="url(#c)" fill-rule="nonzero" opacity=".73"/><path d="M33.4 42.68a17.94 17.94 0 0 1-23.39-9.84 17.94 17.94 0 0 1 9.59-23.5c9.1-3.77 19.57.64 23.39 9.84a17.94 17.94 0 0 1-9.59 23.5z" stroke="#FFF" stroke-width=".5" opacity=".31"/><path d="M32.7 41.04a16.17 16.17 0 0 1-21.07-8.9 16.17 16.17 0 0 1 8.67-21.16c8.21-3.39 17.65.6 21.07 8.9a16.17 16.17 0 0 1-8.68 21.16z" stroke-opacity=".33" stroke="#603913" stroke-width=".5" fill="url(#d)" fill-rule="nonzero"/><path fill="#837563" fill-rule="nonzero" d="M26.32 10.18h1v5.96h-1zM26.32 35.88h1v5.96h-1zM18.5 12.39l.87-.5 2.98 5.16-.87.5zM31.21 34.64l.87-.5 2.98 5.16-.87.5zM12.83 18.24l.5-.87 5.16 2.99-.5.86zM34.84 31.1l.5-.87 5.16 2.98-.5.86zM10.84 25.83h5.9v1h-5.9zM36.26 25.83h5.9v1h-5.9zM12.85 33.76l5.1-2.95.5.86-5.1 2.96zM34.87 20.9l5.1-2.94.5.86-5.1 2.95zM18.52 39.6l2.95-5.1.86.49-2.95 5.11zM31.23 17.34l2.95-5.11.86.5-2.95 5.11z"/><path fill="#837563" fill-rule="nonzero" d="M26.32 10.18h1v2.43h-1zM26.32 39.41h1v2.43h-1zM23.6 10.45l.99-.17.42 2.39-.99.17zM28.34 39.1l.98-.16.41 2.38-.98.17zM20.98 11.2l.94-.35.83 2.29-.94.34zM30.87 38.66l.94-.34.83 2.28-.94.35zM18.6 12.46l.87-.5 1.22 2.12-.87.5zM32.97 37.7l.86-.5 1.22 2.1-.87.5zM16.3 14l.76-.64 1.56 1.86-.77.64zM34.88 36.38l.77-.64 1.56 1.86-.77.65zM14.38 15.97l.65-.77 1.86 1.57-.65.76zM36.52 34.76l.65-.76 1.86 1.56-.65.77zM12.85 18.25l.5-.87 2.1 1.22-.5.86zM40.15 33.77l-.18.3-2.08-1.2.17-.32zM11.72 20.76l.34-.94 2.28.83-.34.94zM38.89 30.76l.34-.94 2.28.83-.34.94zM11.03 23.43l.18-.98 2.4.42-.18.98zM41.95 28.58l-.06.35-2.37-.42.06-.35zM10.84 25.83h2.41v1h-2.41zM39.75 25.83h2.41v1h-2.4zM11.05 28.58l2.37-.42.17.99-2.37.42zM39.52 23.5l2.37-.42.17.99-2.37.42zM11.72 31.25l2.27-.82.34.94-2.27.82zM38.85 21.37l2.26-.82.34.94-2.26.82zM12.85 33.76l2.1-1.2.5.87-2.1 1.2zM37.88 19.15l2.09-1.21.5.87-2.08 1.2zM14.39 36.05l1.85-1.55.64.76-1.85 1.55zM36.54 17.25l1.84-1.55.64.76-1.84 1.55zM16.3 38l1.55-1.84.77.64-1.56 1.85zM34.89 15.62l1.55-1.84.76.64-1.55 1.85zM18.52 39.62l1.2-2.09.87.5-1.2 2.09zM32.98 14.3l1.2-2.08.87.5-1.2 2.09zM20.98 40.81l.82-2.26.94.34-.83 2.26zM30.87 13.34l.82-2.26.94.34-.82 2.27zM23.6 41.56l.42-2.38.99.18-.42 2.37zM28.63 12.77l.42-2.38.98.18-.41 2.37zM35 26l-4-1a4.83 4.83 0 0 0-4.58-3.78A4.66 4.66 0 0 0 22 25l-4 1 4 1a4.7 4.7 0 0 0 4.42 3.67A4.87 4.87 0 0 0 31 27l4-1z"/><path d="M30.55 27.31a4.17 4.17 0 0 0-4.05-4.28c-2.23 0-4.05 1.93-4.05 4.28 0 .93.3 1.83.83 2.57l3.22 5.92 3.24-5.93c.52-.75.8-1.64.8-2.56z" fill="#1E6A93" fill-rule="nonzero"/><path d="M26.42 35.4l3.5-6.45c.6-.82.92-1.81.91-2.83a4.55 4.55 0 0 0-4.41-4.67V35.4z" fill="#FFF" fill-rule="nonzero" opacity=".35"/><path d="M30.03 23.02L26.5 16.5 23 22.97c-.6.82-1 2.01-1 3.03 0 2.58 2.06 4 4.5 4s4.5-1.44 4.5-4c0-1-.4-2.17-.97-2.98z" fill="#AD1B1E" fill-rule="nonzero"/><path d="M26.5 16.5l3.43 6.47c.59.82.9 1.81.9 2.83 0 2.58-1.9 4.7-4.33 4.7v-14z" fill="#FFF" fill-rule="nonzero" opacity=".35"/><path d="M26.5 23.5c5.5 0 14.5 4.5 15.5 2C42 17 35 10 26.5 10S11 17 11 25.5c1 2.5 10-2 15.5-2z" fill="#FFF" fill-rule="nonzero" opacity=".28"/><path d="M29.9 11.39l-.32.04a.7.7 0 0 0-.35.16.56.56 0 0 0-.2.35c-.06.25-.09.5-.1.75v3.92h-.64l-3.39-4.25v2.58c0 .24.02.49.07.73.03.14.1.27.2.36a1 1 0 0 0 .33.16l.36.08v.3h-2.33v-.3c.11 0 .22-.03.34-.05a.96.96 0 0 0 .32-.14c.1-.08.18-.2.2-.34a4 4 0 0 0 .06-.76v-2.6c0-.12-.02-.25-.06-.37a.7.7 0 0 0-.18-.29c-.1-.08-.2-.16-.31-.2a2.59 2.59 0 0 0-.4-.13v-.3h2.04l2.97 3.71v-2.08c.01-.25-.01-.5-.06-.73a.66.66 0 0 0-.21-.36 1 1 0 0 0-.33-.16l-.35-.08v-.3h2.33v.3z" fill="#B12024" fill-rule="nonzero"/><path d="M8.5 24.77c.78-9.5 8.42-17.02 17.94-17.02 9.52 0 17.22 7.43 18.05 16.89 2.47.33 5.3.73 7.6 1.2-.25-14-11.86-25.3-25.64-25.3C12.68.53 1.12 11.96.93 26c2.27-.47 5.1-.89 7.56-1.24z" fill="#FFF" fill-rule="nonzero" opacity=".49"/><path d="M61.08 26.19c0-4.6 3.3-7.99 8.14-7.99 2.73 0 5.96 1.1 5.96 3.06v1.92h-2.02v-1.15c0-1.3-2.05-1.93-3.88-1.93-3.63 0-5.91 2.46-5.91 6.02 0 3.59 2.33 6.23 5.98 6.23 1.39 0 4.16-.42 4.16-1.94v-2.04h-3.04v-1.72h5.06v4.36c0 2.4-4 3.25-6.33 3.25a7.84 7.84 0 0 1-8.12-8.07zm16.32 2.24c0-3.54 2.4-5.83 5.57-5.83 3.17 0 4.82 2.34 4.82 5.22 0 .28-.07.81-.07.81h-8.14c.13 2.47 1.87 3.79 3.85 3.79 1.94 0 3.32-1.26 3.32-1.26l.88 1.56s-1.67 1.54-4.33 1.54c-3.5 0-5.9-2.53-5.9-5.83zm2.27-1.16h5.92c-.07-1.96-1.26-2.97-2.67-2.97-1.62 0-2.94 1.1-3.25 2.97zm9.57 1.14c0-3.36 2.68-5.8 6-5.8a5.83 5.83 0 0 1 0 11.66c-3.32 0-6-2.47-6-5.86zm2.18 0c0 2.33 1.71 4 3.82 4a3.86 3.86 0 0 0 3.83-4 3.83 3.83 0 1 0-7.65 0zm13.02 7.66s1.39.75 3.06.75c1.93 0 3.52-.88 3.52-3.17v-.88c0-.35.06-.7.06-.7h-.04a3.63 3.63 0 0 1-3.34 1.8c-3.08 0-4.98-2.49-4.98-5.7 0-3.19 1.79-5.57 4.89-5.57 1.45 0 2.99.55 3.6 1.83h.05s-.04-.15-.04-.44c0-.7.35-1.12 1.27-1.12h2.38v1.65h-1.23c-.29 0-.49.15-.49.44v8.58c0 3.67-2.8 5.08-5.6 5.08-1.35 0-2.71-.37-3.81-.92l.7-1.63zm3.67-4.05c1.54 0 2.95-.92 2.95-3.83 0-2.9-1.4-3.74-3.14-3.74-1.92 0-3.02 1.41-3.02 3.68 0 2.3 1.21 3.89 3.21 3.89zM116.3 34v-1.65h1.67V25c0-.33-.18-.48-.48-.48h-1.39v-1.65h2.5c.98 0 1.44.4 1.44 1.3v.7c0 .44-.05.77-.05.77h.05c.5-1.63 1.8-2.9 3.52-2.9.28 0 .55.04.55.04v2.11s-.27-.06-.62-.06c-2.37 0-3.39 2.4-3.39 4.57v2.95h1.65V34h-5.45zm8.58-3.1c0-3.5 4.64-3.74 6.49-3.74h.7v-.42c0-1.76-1.01-2.38-2.37-2.38-1.76 0-3.2 1.08-3.2 1.08l-.85-1.52s1.63-1.32 4.22-1.32c2.84 0 4.34 1.48 4.34 4.3v4.97c0 .33.17.48.48.48h1.12V34h-2.22c-.99 0-1.39-.48-1.39-1.21v-.15c0-.44.1-.73.1-.73h-.05s-.97 2.35-3.68 2.35c-1.84 0-3.7-1.07-3.7-3.36zm2.15-.18c0 1 .73 1.9 2 1.9 1.9 0 3.06-1.94 3.06-3.61v-.47h-.55c-1 0-4.5.05-4.5 2.18zm9.6 6.03h1.73V25c0-.33-.17-.48-.48-.48h-1.36v-1.65h2.46c.99 0 1.36.44 1.36 1.1v.09c0 .35-.04.63-.04.63h.04s.93-2.09 3.74-2.09c3 0 4.89 2.38 4.89 5.83 0 3.55-2.14 5.83-5.04 5.83-2.44 0-3.45-1.89-3.45-1.89h-.05s.07.4.07.97v3.41h1.76v1.65h-5.63v-1.65zm3.82-8.27c0 1.98 1.08 3.94 3.15 3.94 1.76 0 3.21-1.43 3.21-3.96 0-2.42-1.3-3.99-3.17-3.99-1.65 0-3.19 1.17-3.19 4zm9.8 5.52v-1.65H152V20.12h-1.87v-1.65h3.99v5.76c0 .53-.07.93-.07.93h.04a4.61 4.61 0 0 1 4.16-2.56c2.62 0 3.83 1.43 3.83 4.27v5.48h1.74V34h-3.87v-6.64c0-1.57-.33-2.8-2.12-2.8-2.17 0-3.71 1.85-3.71 4.23v3.56h1.76V34h-5.64zm16.52-13.35v-2.18H169v2.18h-2.24zM165.07 34v-1.65h1.74v-7.83h-1.85v-1.65h3.98v9.48h1.76V34h-5.63zm6.76-5.54a5.72 5.72 0 0 1 5.9-5.86c1.64 0 4.35.62 4.35 2.53v1.37h-1.9v-.77c0-.86-1.4-1.28-2.4-1.28-2.24 0-3.78 1.59-3.78 3.96 0 2.53 1.79 4 3.92 4 1.9 0 3.17-1.12 3.56-1.42l.82 1.56a6.79 6.79 0 0 1-4.47 1.71c-3.21 0-6-2.22-6-5.8zM189.07 34v-1.72h1.94V20.16h-1.94v-1.7h6.1v1.7h-1.96v12.12h1.96V34h-6.1zm7.86 0v-1.65h1.74V25c0-.33-.18-.48-.49-.48h-1.36v-1.65h2.5c.97 0 1.41.42 1.41 1.23v.57c0 .35-.06.64-.06.64h.04c.22-.6 1.52-2.7 4.34-2.7 2.55 0 3.7 1.42 3.7 4.26v5.48h1.75V34h-3.9v-6.64c0-1.57-.3-2.8-2.08-2.8-2.25 0-3.72 2.05-3.72 4.27v3.52h1.76V34h-5.63zm14.8 0v-1.65h1.74v-7.83h-1.85v-1.65h1.85v-.55c0-3.57 2.69-4 4-4 .6 0 1.02.06 1.02.06v1.76s-.29-.07-.8-.07c-.7 0-2.08.2-2.08 2.2v.6h2.68v1.65h-2.68v7.83h2.04V34h-5.92zm7.62-5.59c0-3.36 2.68-5.8 6-5.8s6 2.44 6 5.8a5.83 5.83 0 0 1-6 5.85c-3.32 0-6-2.46-6-5.85zm2.17 0c0 2.33 1.72 4 3.83 4a3.86 3.86 0 0 0 3.83-4 3.83 3.83 0 1 0-7.66 0zM232.9 34v-1.65h1.67V25c0-.33-.18-.48-.48-.48h-1.39v-1.65h2.5c.98 0 1.44.4 1.44 1.3v.7c0 .44-.05.77-.05.77h.05c.5-1.63 1.8-2.9 3.52-2.9.28 0 .55.04.55.04v2.11s-.27-.06-.62-.06c-2.37 0-3.39 2.4-3.39 4.57v2.95h1.65V34h-5.45zm8.9 0v-1.65h1.75v-7.37c0-.3-.18-.46-.49-.46h-1.36v-1.65h2.5c.95 0 1.41.42 1.41 1.23v.57c0 .35-.06.64-.06.64h.04a4.6 4.6 0 0 1 3.96-2.7c1.78 0 2.88.8 3.26 2.61h.04a4.49 4.49 0 0 1 3.98-2.62c2.47 0 3.63 1.43 3.63 4.27v5.48h1.76V34h-3.89v-6.67c0-1.56-.29-2.79-1.96-2.79-2.09 0-3.28 2.13-3.28 4.33v3.48h1.74V34h-3.87v-6.67c0-1.45-.22-2.79-1.94-2.79-2.1 0-3.34 2.24-3.34 4.42v3.39h1.76V34h-5.63zm21.33-3.1c0-3.5 4.64-3.74 6.49-3.74h.7v-.42c0-1.76-1.01-2.38-2.38-2.38-1.76 0-3.19 1.08-3.19 1.08l-.85-1.52s1.62-1.32 4.22-1.32c2.84 0 4.33 1.48 4.33 4.3v4.97c0 .33.18.48.49.48h1.12V34h-2.22c-1 0-1.39-.48-1.39-1.21v-.15c0-.44.09-.73.09-.73h-.04s-.97 2.35-3.68 2.35c-1.85 0-3.7-1.07-3.7-3.36zm2.15-.18c0 1 .73 1.9 2 1.9 1.9 0 3.06-1.94 3.06-3.61v-.47h-.55c-1.01 0-4.5.05-4.5 2.18zm11.09-.79v-5.41h-1.87v-1.65h1.91V19.8h2.1v3.06h2.66v1.65h-2.67v5.21c0 2.27 1.54 2.55 2.38 2.55.3 0 .5-.02.5-.02v1.78s-.3.05-.76.05c-1.41 0-4.25-.44-4.25-4.16zm8.05-9.28v-2.18h2.25v2.18h-2.25zM282.72 34v-1.65h1.75v-7.83h-1.85v-1.65h3.98v9.48h1.76V34h-5.63zm6.76-5.59c0-3.36 2.69-5.8 6-5.8a5.83 5.83 0 0 1 0 11.66c-3.31 0-6-2.47-6-5.86zm2.18 0c0 2.33 1.72 4 3.83 4a3.86 3.86 0 0 0 3.83-4 3.83 3.83 0 1 0-7.66 0zM302.99 34v-1.65h1.74V25c0-.33-.18-.48-.49-.48h-1.36v-1.65h2.5c.98 0 1.42.42 1.42 1.23v.57c0 .35-.07.64-.07.64h.04c.22-.6 1.52-2.7 4.34-2.7 2.55 0 3.7 1.42 3.7 4.26v5.48h1.75V34h-3.89v-6.64c0-1.57-.3-2.8-2.09-2.8-2.24 0-3.72 2.05-3.72 4.27v3.52h1.76V34H303zm20.06-4.66h2.03v1.14c0 1.14 1.47 1.83 3.1 1.83 1.78 0 3.08-.84 3.08-2.38 0-1.8-1.83-2.4-3.74-3.15-2.05-.77-4.14-1.65-4.14-4.4 0-2.92 2.36-4.18 4.98-4.18 2.33 0 4.7.88 4.7 2.58v1.82h-2.04v-1.07c0-.9-1.39-1.39-2.66-1.39-1.52 0-2.73.7-2.73 2.13 0 1.65 1.56 2.2 3.3 2.86 2.29.86 4.55 1.74 4.55 4.62 0 2.97-2.42 4.51-5.3 4.51-2.42 0-5.13-1.07-5.13-3.3v-1.62zm12.52 6.97s.64.53 1.59.53c.94 0 1.67-.66 2.04-1.54l.46-1.1-3.89-9.68h-1.4v-1.65h5.07v1.65h-1.47l2.49 6.62c.15.48.2.97.2.97h.06s.09-.49.26-.97l2.47-6.62h-1.43v-1.65h4.93v1.65h-1.39l-4.4 11.24c-.75 1.9-2.2 2.86-3.92 2.86a4.4 4.4 0 0 1-2.4-.7l.73-1.61zm12.1-4.7v-1.2h1.87v.73c0 .95 1.32 1.39 2.55 1.39 1.26 0 2.25-.51 2.25-1.43 0-1.13-1.23-1.48-2.77-2.03-1.65-.61-3.48-1.36-3.48-3.39 0-2.2 2.18-3.08 4.11-3.08 1.57 0 3.85.62 3.85 2.25v1.34h-1.87v-.73c0-.68-.88-1.14-1.95-1.14-1.06 0-1.98.44-1.98 1.34 0 1.06 1.23 1.5 2.57 1.96 1.72.57 3.67 1.3 3.67 3.37 0 2.1-1.93 3.27-4.46 3.27-2.03 0-4.36-.9-4.36-2.66zm11.62-1.68v-5.41h-1.87v-1.65h1.91V19.8h2.1v3.06h2.65v1.65h-2.66v5.21c0 2.27 1.54 2.55 2.38 2.55.3 0 .5-.02.5-.02v1.78s-.3.05-.77.05c-1.4 0-4.24-.44-4.24-4.16zm6.2-1.5c0-3.54 2.4-5.83 5.57-5.83 3.17 0 4.82 2.34 4.82 5.22 0 .28-.07.81-.07.81h-8.14c.13 2.47 1.87 3.79 3.85 3.79a5.42 5.42 0 0 0 3.32-1.26l.88 1.56s-1.67 1.54-4.33 1.54c-3.5 0-5.9-2.53-5.9-5.83zm2.27-1.16h5.92c-.07-1.96-1.26-2.97-2.67-2.97-1.62 0-2.94 1.1-3.25 2.97zM377.5 34v-1.65h1.74v-7.37c0-.3-.17-.46-.48-.46h-1.37v-1.65h2.51c.95 0 1.41.42 1.41 1.23v.57c0 .35-.07.64-.07.64h.05a4.6 4.6 0 0 1 3.96-2.7c1.78 0 2.88.8 3.25 2.61h.05a4.49 4.49 0 0 1 3.98-2.62c2.46 0 3.63 1.43 3.63 4.27v5.48h1.76V34h-3.9v-6.67c0-1.56-.28-2.79-1.95-2.79-2.1 0-3.28 2.13-3.28 4.33v3.48h1.74V34h-3.87v-6.67c0-1.45-.22-2.79-1.94-2.79-2.11 0-3.34 2.24-3.34 4.42v3.39h1.76V34h-5.64zm21.48-2.4v-1.19h1.87v.73c0 .95 1.32 1.39 2.55 1.39 1.25 0 2.24-.51 2.24-1.43 0-1.13-1.23-1.48-2.77-2.03-1.65-.61-3.48-1.36-3.48-3.39 0-2.2 2.18-3.08 4.12-3.08 1.56 0 3.85.62 3.85 2.25v1.34h-1.87v-.73c0-.68-.88-1.14-1.96-1.14-1.06 0-1.98.44-1.98 1.34 0 1.06 1.23 1.5 2.57 1.96 1.72.57 3.68 1.3 3.68 3.37 0 2.1-1.94 3.27-4.47 3.27-2.02 0-4.35-.9-4.35-2.66z" fill="#6D8592"/></g></svg>